# xmcd
#
# Track frame offsets: 
#        150
#        18556
#        37620
#        58631
#        82454
#        101671
#        118373
#        138391
#        157478
#        178983
#        192697
#        213764
#        235132
#        257130
#        276826
#
# Disc length: 3983 seconds
#
# Revision: 2
# Processed by: cddbd v1.5.2PL0 Copyright (c) Steve Scherf et al.
# Submitted via: ExactAudioCopyFreeDBPlugin 1.0
#
DISCID=e90f8d0f
DTITLE=群星 - DTS51情挑膽心絕色女聲
DYEAR=2010
DGENRE=DTS51
TTITLE0=塑料花
TTITLE1=不是因為寂寞才想你
TTITLE2=今生最愛
TTITLE3=康美之戀
TTITLE4=明月夜
TTITLE5=你要我等你多久
TTITLE6=愛走了心碎了
TTITLE7=愛上別人的人
TTITLE8=夢中的唐古拉
TTITLE9=人間第一情
TTITLE10=青花瓷
TTITLE11=夜上海
TTITLE12=藍眼淚
TTITLE13=相思
TTITLE14=聽著情歌流眼淚
EXTD=YEAR: 2009
EXTT0=
EXTT1=
EXTT2=
EXTT3=
EXTT4=
EXTT5=
EXTT6=
EXTT7=
EXTT8=
EXTT9=
EXTT10=
EXTT11=
EXTT12=
EXTT13=
EXTT14=
PLAYORDER=
